# xmcd
#
# Track frame offsets: 
#        150
#        46799
#        71456
#        113666
#        138702
#        159739
#        197818
#        218578
#        242654
#        268580
#
# Disc length: 4217 seconds
#
# Revision: 0
# Processed by: cddbd v1.5.2PL0 Copyright (c) Steve Scherf et al.
# Submitted via: ExactAudioCopy v0.99pb4
#
DISCID=8d10770a
DTITLE=Mighty Joe Young - Bluesy Josephine
DYEAR=1976
DGENRE=Blues
TTITLE0=Teasin' The Blues
TTITLE1=Take Money
TTITLE2=Five Long Years
TTITLE3=Wisefool Express
TTITLE4=Take A Fool Advice
TTITLE5=Sweet Home Chicago
TTITLE6=Need A Friend
TTITLE7=Take Money*
TTITLE8=Wisefool Express*
TTITLE9=Teasin' The Blues*
EXTD=
EXTT0=
EXTT1=
EXTT2=
EXTT3=
EXTT4=
EXTT5=
EXTT6=
EXTT7=
EXTT8=
EXTT9=
PLAYORDER=
